<svg width="17" height="16" viewBox="0 0 17 16" fill="none" xmlns="http://www.w3.org/2000/svg">
<path d="M16.5386 6.00296C16.5036 5.8957 16.4109 5.81748 16.2992 5.80119L10.9392 5.02222L8.54216 0.165333C8.49238 0.064 8.38927 0 8.27668 0C8.16408 0 8.06068 0.064 8.01119 0.165333L5.61386 5.02252L0.253861 5.80148C0.142157 5.81778 0.049713 5.8957 0.0144538 6.00326C-0.0202129 6.11022 0.00852784 6.22815 0.0894167 6.30667L3.96823 10.0874L3.05238 15.4261C3.03342 15.5372 3.07905 15.6495 3.17001 15.7159C3.26156 15.7828 3.38275 15.7914 3.48201 15.7384L8.27668 13.2181L13.0708 15.7384C13.114 15.7612 13.1617 15.7724 13.2088 15.7724C13.2702 15.7724 13.3312 15.7535 13.383 15.7159C13.4743 15.6495 13.5199 15.5372 13.5007 15.4261L12.5851 10.0877L16.4639 6.30667C16.5445 6.22756 16.5736 6.10993 16.5386 6.00296Z" fill="#EF9546"/>
</svg>

